<svg id="visual" viewBox="0 0 900 600" width="900" height="600" xmlns="http://www.w3.org/2000/svg" xmlns:xlink="http://www.w3.org/1999/xlink" version="1.1"><rect x="0" y="0" width="900" height="600" fill="#001220"></rect><defs><linearGradient id="grad1_0" x1="33.3%" y1="100%" x2="100%" y2="0%"><stop offset="20%" stop-color="#fbae3c" stop-opacity="1"></stop><stop offset="80%" stop-color="#fbae3c" stop-opacity="1"></stop></linearGradient></defs><defs><linearGradient id="grad1_1" x1="33.3%" y1="100%" x2="100%" y2="0%"><stop offset="20%" stop-color="#fbae3c" stop-opacity="1"></stop><stop offset="80%" stop-color="#f48350" stop-opacity="1"></stop></linearGradient></defs><defs><linearGradient id="grad1_2" x1="33.3%" y1="100%" x2="100%" y2="0%"><stop offset="20%" stop-color="#d96162" stop-opacity="1"></stop><stop offset="80%" stop-color="#f48350" stop-opacity="1"></stop></linearGradient></defs><defs><linearGradient id="grad1_3" x1="33.3%" y1="100%" x2="100%" y2="0%"><stop offset="20%" stop-color="#d96162" stop-opacity="1"></stop><stop offset="80%" stop-color="#af4b6d" stop-opacity="1"></stop></linearGradient></defs><defs><linearGradient id="grad1_4" x1="33.3%" y1="100%" x2="100%" y2="0%"><stop offset="20%" stop-color="#7c3e6b" stop-opacity="1"></stop><stop offset="80%" stop-color="#af4b6d" stop-opacity="1"></stop></linearGradient></defs><defs><linearGradient id="grad1_5" x1="33.3%" y1="100%" x2="100%" y2="0%"><stop offset="20%" stop-color="#7c3e6b" stop-opacity="1"></stop><stop offset="80%" stop-color="#49335c" stop-opacity="1"></stop></linearGradient></defs><defs><linearGradient id="grad1_6" x1="33.3%" y1="100%" x2="100%" y2="0%"><stop offset="20%" stop-color="#1d2540" stop-opacity="1"></stop><stop offset="80%" stop-color="#49335c" stop-opacity="1"></stop></linearGradient></defs><defs><linearGradient id="grad1_7" x1="33.3%" y1="100%" x2="100%" y2="0%"><stop offset="20%" stop-color="#1d2540" stop-opacity="1"></stop><stop offset="80%" stop-color="#001220" stop-opacity="1"></stop></linearGradient></defs><defs><linearGradient id="grad2_0" x1="0%" y1="100%" x2="66.7%" y2="0%"><stop offset="20%" stop-color="#fbae3c" stop-opacity="1"></stop><stop offset="80%" stop-color="#fbae3c" stop-opacity="1"></stop></linearGradient></defs><defs><linearGradient id="grad2_1" x1="0%" y1="100%" x2="66.7%" y2="0%"><stop offset="20%" stop-color="#f48350" stop-opacity="1"></stop><stop offset="80%" stop-color="#fbae3c" stop-opacity="1"></stop></linearGradient></defs><defs><linearGradient id="grad2_2" x1="0%" y1="100%" x2="66.7%" y2="0%"><stop offset="20%" stop-color="#f48350" stop-opacity="1"></stop><stop offset="80%" stop-color="#d96162" stop-opacity="1"></stop></linearGradient></defs><defs><linearGradient id="grad2_3" x1="0%" y1="100%" x2="66.7%" y2="0%"><stop offset="20%" stop-color="#af4b6d" stop-opacity="1"></stop><stop offset="80%" stop-color="#d96162" stop-opacity="1"></stop></linearGradient></defs><defs><linearGradient id="grad2_4" x1="0%" y1="100%" x2="66.7%" y2="0%"><stop offset="20%" stop-color="#af4b6d" stop-opacity="1"></stop><stop offset="80%" stop-color="#7c3e6b" stop-opacity="1"></stop></linearGradient></defs><defs><linearGradient id="grad2_5" x1="0%" y1="100%" x2="66.7%" y2="0%"><stop offset="20%" stop-color="#49335c" stop-opacity="1"></stop><stop offset="80%" stop-color="#7c3e6b" stop-opacity="1"></stop></linearGradient></defs><defs><linearGradient id="grad2_6" x1="0%" y1="100%" x2="66.7%" y2="0%"><stop offset="20%" stop-color="#49335c" stop-opacity="1"></stop><stop offset="80%" stop-color="#1d2540" stop-opacity="1"></stop></linearGradient></defs><defs><linearGradient id="grad2_7" x1="0%" y1="100%" x2="66.7%" y2="0%"><stop offset="20%" stop-color="#001220" stop-opacity="1"></stop><stop offset="80%" stop-color="#1d2540" stop-opacity="1"></stop></linearGradient></defs><g transform="translate(900, 600)"><path d="M-432.7 0C-427.6 -57.3 -422.5 -114.7 -399.7 -165.6C-376.9 -216.5 -336.4 -260.9 -292 -292C-247.6 -323.2 -199.3 -340.9 -150 -362.2C-100.7 -383.4 -50.3 -408 0 -432.7L0 0Z" fill="#0c1c30"></path><path d="M-378.6 0C-374.1 -50.2 -369.7 -100.3 -349.8 -144.9C-329.8 -189.4 -294.4 -228.3 -255.5 -255.5C-216.7 -282.8 -174.4 -298.3 -131.3 -316.9C-88.1 -335.5 -44.1 -357 0 -378.6L0 0Z" fill="#312c4f"></path><path d="M-324.5 0C-320.7 -43 -316.9 -86 -299.8 -124.2C-282.7 -162.4 -252.3 -195.7 -219 -219C-185.7 -242.4 -149.5 -255.7 -112.5 -271.6C-75.5 -287.5 -37.8 -306 0 -324.5L0 0Z" fill="#623965"></path><path d="M-270.4 0C-267.2 -35.8 -264.1 -71.7 -249.8 -103.5C-235.6 -135.3 -210.3 -163.1 -182.5 -182.5C-154.8 -202 -124.6 -213.1 -93.8 -226.4C-62.9 -239.6 -31.5 -255 0 -270.4L0 0Z" fill="#96446e"></path><path d="M-216.3 0C-213.8 -28.7 -211.3 -57.3 -199.9 -82.8C-188.5 -108.2 -168.2 -130.5 -146 -146C-123.8 -161.6 -99.7 -170.5 -75 -181.1C-50.3 -191.7 -25.2 -204 0 -216.3L0 0Z" fill="#c55469"></path><path d="M-162.2 0C-160.3 -21.5 -158.4 -43 -149.9 -62.1C-141.4 -81.2 -126.2 -97.8 -109.5 -109.5C-92.9 -121.2 -74.8 -127.9 -56.3 -135.8C-37.8 -143.8 -18.9 -153 0 -162.2L0 0Z" fill="#e9705a"></path><path d="M-108.2 0C-106.9 -14.3 -105.6 -28.7 -99.9 -41.4C-94.2 -54.1 -84.1 -65.2 -73 -73C-61.9 -80.8 -49.8 -85.2 -37.5 -90.5C-25.2 -95.8 -12.6 -102 0 -108.2L0 0Z" fill="#fa9845"></path><path d="M-54.1 0C-53.4 -7.2 -52.8 -14.3 -50 -20.7C-47.1 -27.1 -42.1 -32.6 -36.5 -36.5C-31 -40.4 -24.9 -42.6 -18.8 -45.3C-12.6 -47.9 -6.3 -51 0 -54.1L0 0Z" fill="#fbae3c"></path></g><g transform="translate(0, 0)"><path d="M432.7 0C428.5 58.8 424.4 117.5 399.7 165.6C375 213.6 329.8 250.9 287.8 287.8C245.8 324.7 207 361.2 159.6 385.3C112.2 409.3 56.1 421 0 432.7L0 0Z" fill="#0c1c30"></path><path d="M378.6 0C375 51.4 371.4 102.8 349.8 144.9C328.2 186.9 288.6 219.5 251.8 251.8C215.1 284.1 181.1 316 139.6 337.1C98.1 358.2 49.1 368.4 0 378.6L0 0Z" fill="#312c4f"></path><path d="M324.5 0C321.4 44.1 318.3 88.2 299.8 124.2C281.3 160.2 247.4 188.2 215.8 215.8C184.3 243.5 155.3 270.9 119.7 288.9C84.1 307 42.1 315.8 0 324.5L0 0Z" fill="#623965"></path><path d="M270.4 0C267.8 36.7 265.3 73.5 249.8 103.5C234.4 133.5 206.1 156.8 179.9 179.9C153.6 202.9 129.4 225.7 99.7 240.8C70.1 255.8 35 263.1 0 270.4L0 0Z" fill="#96446e"></path><path d="M216.3 0C214.3 29.4 212.2 58.8 199.9 82.8C187.5 106.8 164.9 125.4 143.9 143.9C122.9 162.3 103.5 180.6 79.8 192.6C56.1 204.7 28 210.5 0 216.3L0 0Z" fill="#c55469"></path><path d="M162.2 0C160.7 22 159.2 44.1 149.9 62.1C140.6 80.1 123.7 94.1 107.9 107.9C92.2 121.8 77.6 135.4 59.8 144.5C42.1 153.5 21 157.9 0 162.2L0 0Z" fill="#e9705a"></path><path d="M108.2 0C107.1 14.7 106.1 29.4 99.9 41.4C93.8 53.4 82.5 62.7 71.9 71.9C61.4 81.2 51.8 90.3 39.9 96.3C28 102.3 14 105.3 0 108.2L0 0Z" fill="#fa9845"></path><path d="M54.1 0C53.6 7.3 53.1 14.7 50 20.7C46.9 26.7 41.2 31.4 36 36C30.7 40.6 25.9 45.1 19.9 48.2C14 51.2 7 52.6 0 54.1L0 0Z" fill="#fbae3c"></path></g></svg>